<svg width="24" height="26" viewBox="0 0 24 26" fill="none" xmlns="http://www.w3.org/2000/svg">
<path d="M11.73 24C11.5544 24.3033 11.3021 24.5552 10.9985 24.7302C10.6948 24.9053 10.3505 24.9974 10 24.9974C9.6495 24.9974 9.30517 24.9053 9.00152 24.7302C8.69788 24.5552 8.44561 24.3033 8.27 24M16.134 14C16.715 19.375 19 21 19 21H1C1 21 4 18.867 4 11.4C4 9.703 4.632 8.075 5.757 6.875C6.883 5.675 8.41 5 10 5C10.337 5 10.672 5.03 11 5.09L16.134 14ZM17 11C17.7956 11 18.5587 10.6839 19.1213 10.1213C19.6839 9.55871 20 8.79565 20 8C20 7.20435 19.6839 6.44129 19.1213 5.87868C18.5587 5.31607 17.7956 5 17 5C16.2044 5 15.4413 5.31607 14.8787 5.87868C14.3161 6.44129 14 7.20435 14 8C14 8.79565 14.3161 9.55871 14.8787 10.1213C15.4413 10.6839 16.2044 11 17 11Z" stroke="#01417D" stroke-width="1.5" stroke-linecap="round" stroke-linejoin="round"/>
<circle cx="15.5" cy="8.5" r="8.5" fill="#FF1010"/>
<path d="M14.328 7.488C13.88 7.312 13.536 7.056 13.296 6.72C13.056 6.384 12.936 5.976 12.936 5.496C12.936 5.064 13.044 4.676 13.26 4.332C13.476 3.98 13.796 3.704 14.22 3.504C14.652 3.296 15.172 3.192 15.78 3.192C16.388 3.192 16.904 3.296 17.328 3.504C17.76 3.704 18.084 3.98 18.3 4.332C18.524 4.676 18.636 5.064 18.636 5.496C18.636 5.96 18.512 6.368 18.264 6.72C18.016 7.064 17.676 7.32 17.244 7.488C17.74 7.64 18.132 7.908 18.42 8.292C18.716 8.668 18.864 9.124 18.864 9.66C18.864 10.18 18.736 10.636 18.48 11.028C18.224 11.412 17.86 11.712 17.388 11.928C16.924 12.136 16.388 12.24 15.78 12.24C15.172 12.24 14.636 12.136 14.172 11.928C13.716 11.712 13.36 11.412 13.104 11.028C12.848 10.636 12.72 10.18 12.72 9.66C12.72 9.124 12.864 8.664 13.152 8.28C13.44 7.896 13.832 7.632 14.328 7.488ZM17.58 5.628C17.58 5.14 17.42 4.764 17.1 4.5C16.78 4.236 16.34 4.104 15.78 4.104C15.228 4.104 14.792 4.236 14.472 4.5C14.152 4.764 13.992 5.144 13.992 5.64C13.992 6.088 14.156 6.448 14.484 6.72C14.82 6.992 15.252 7.128 15.78 7.128C16.316 7.128 16.748 6.992 17.076 6.72C17.412 6.44 17.58 6.076 17.58 5.628ZM15.78 7.968C15.188 7.968 14.704 8.108 14.328 8.388C13.952 8.66 13.764 9.072 13.764 9.624C13.764 10.136 13.944 10.548 14.304 10.86C14.672 11.172 15.164 11.328 15.78 11.328C16.396 11.328 16.884 11.172 17.244 10.86C17.604 10.548 17.784 10.136 17.784 9.624C17.784 9.088 17.6 8.68 17.232 8.4C16.864 8.112 16.38 7.968 15.78 7.968Z" fill="white"/>
</svg>
