<svg width="25" height="25" viewBox="0 0 25 25" fill="none" xmlns="http://www.w3.org/2000/svg">
<path d="M8.84723 3.48611C8.59636 4.38591 8.47018 5.31588 8.47223 6.25C8.47223 11.9167 13.0833 16.5278 18.75 16.5278C19.6944 16.5278 20.625 16.4028 21.5139 16.1528C20.7843 17.9454 19.5373 19.4801 17.9319 20.5611C16.3265 21.6421 14.4354 22.2204 12.5 22.2222C7.13889 22.2222 2.77778 17.8611 2.77778 12.5C2.77778 8.43055 5.29167 4.93055 8.84723 3.48611ZM12.5 0C10.0277 0 7.61099 0.733112 5.55538 2.10663C3.49976 3.48015 1.89761 5.43238 0.951511 7.71645C0.00541599 10.0005 -0.242126 12.5139 0.24019 14.9386C0.722505 17.3634 1.91301 19.5907 3.66117 21.3388C5.40933 23.087 7.63661 24.2775 10.0614 24.7598C12.4861 25.2421 14.9995 24.9946 17.2835 24.0485C19.5676 23.1024 21.5199 21.5002 22.8934 19.4446C24.2669 17.389 25 14.9723 25 12.5C25 11.8611 24.9444 11.2222 24.8611 10.6111C24.1671 11.5842 23.2502 12.377 22.187 12.9231C21.1238 13.4692 19.9452 13.7528 18.75 13.75C17.16 13.75 15.6111 13.245 14.3267 12.3079C13.0422 11.3707 12.0887 10.0497 11.6035 8.53556C11.1184 7.0214 11.1267 5.39226 11.6273 3.88313C12.1279 2.37401 13.0949 1.06289 14.3889 0.138889C13.7778 0.0555554 13.1389 0 12.5 0Z" fill="#D9D9D9"/>
</svg>
