<svg width="35" height="28" viewBox="0 0 35 28" fill="none" xmlns="http://www.w3.org/2000/svg">
<path d="M32.5 7H25V2.33333C25 1.71449 24.7366 1.121 24.2678 0.683417C23.7989 0.245833 23.163 0 22.5 0H12.5C11.837 0 11.2011 0.245833 10.7322 0.683417C10.2634 1.121 10 1.71449 10 2.33333V7H2.5C1.83696 7 1.20107 7.24583 0.732233 7.68342C0.263392 8.121 0 8.71449 0 9.33333V25.6667C0 26.2855 0.263392 26.879 0.732233 27.3166C1.20107 27.7542 1.83696 28 2.5 28H32.5C33.163 28 33.7989 27.7542 34.2678 27.3166C34.7366 26.879 35 26.2855 35 25.6667V9.33333C35 8.71449 34.7366 8.121 34.2678 7.68342C33.7989 7.24583 33.163 7 32.5 7ZM12.5 2.33333H22.5V7H12.5V2.33333ZM2.5 25.6667V9.33333H32.5V25.6667H2.5Z" fill="#01417D"/>
</svg>
