<svg width="28" height="28" viewBox="0 0 28 28" fill="none" xmlns="http://www.w3.org/2000/svg">
<path d="M14 0C14.2652 0 14.5196 0.105357 14.7071 0.292893C14.8946 0.48043 15 0.734784 15 1V3C15 3.26522 14.8946 3.51957 14.7071 3.70711C14.5196 3.89464 14.2652 4 14 4C13.7348 4 13.4804 3.89464 13.2929 3.70711C13.1054 3.51957 13 3.26522 13 3V1C13 0.734784 13.1054 0.48043 13.2929 0.292893C13.4804 0.105357 13.7348 0 14 0ZM14 21C15.8565 21 17.637 20.2625 18.9497 18.9497C20.2625 17.637 21 15.8565 21 14C21 12.1435 20.2625 10.363 18.9497 9.05025C17.637 7.7375 15.8565 7 14 7C12.1435 7 10.363 7.7375 9.05025 9.05025C7.7375 10.363 7 12.1435 7 14C7 15.8565 7.7375 17.637 9.05025 18.9497C10.363 20.2625 12.1435 21 14 21ZM14 19C12.6739 19 11.4021 18.4732 10.4645 17.5355C9.52678 16.5979 9 15.3261 9 14C9 12.6739 9.52678 11.4021 10.4645 10.4645C11.4021 9.52678 12.6739 9 14 9C15.3261 9 16.5979 9.52678 17.5355 10.4645C18.4732 11.4021 19 12.6739 19 14C19 15.3261 18.4732 16.5979 17.5355 17.5355C16.5979 18.4732 15.3261 19 14 19ZM27 15C27.2652 15 27.5196 14.8946 27.7071 14.7071C27.8946 14.5196 28 14.2652 28 14C28 13.7348 27.8946 13.4804 27.7071 13.2929C27.5196 13.1054 27.2652 13 27 13H25C24.7348 13 24.4804 13.1054 24.2929 13.2929C24.1054 13.4804 24 13.7348 24 14C24 14.2652 24.1054 14.5196 24.2929 14.7071C24.4804 14.8946 24.7348 15 25 15H27ZM14 24C14.2652 24 14.5196 24.1054 14.7071 24.2929C14.8946 24.4804 15 24.7348 15 25V27C15 27.2652 14.8946 27.5196 14.7071 27.7071C14.5196 27.8946 14.2652 28 14 28C13.7348 28 13.4804 27.8946 13.2929 27.7071C13.1054 27.5196 13 27.2652 13 27V25C13 24.7348 13.1054 24.4804 13.2929 24.2929C13.4804 24.1054 13.7348 24 14 24ZM3 15C3.26522 15 3.51957 14.8946 3.70711 14.7071C3.89464 14.5196 4 14.2652 4 14C4 13.7348 3.89464 13.4804 3.70711 13.2929C3.51957 13.1054 3.26522 13 3 13H1C0.734784 13 0.48043 13.1054 0.292893 13.2929C0.105357 13.4804 0 13.7348 0 14C0 14.2652 0.105357 14.5196 0.292893 14.7071C0.48043 14.8946 0.734784 15 1 15H3ZM3.293 3.294C3.48053 3.10653 3.73484 3.00121 4 3.00121C4.26516 3.00121 4.51947 3.10653 4.707 3.294L6.707 5.294C6.88916 5.4826 6.98995 5.7352 6.98767 5.9974C6.9854 6.2596 6.88023 6.51041 6.69482 6.69582C6.50941 6.88123 6.2586 6.9864 5.9964 6.98867C5.7342 6.99095 5.4816 6.89016 5.293 6.708L3.293 4.708C3.10553 4.52047 3.00021 4.26616 3.00021 4.001C3.00021 3.73584 3.10553 3.48153 3.293 3.294ZM4.707 24.708C4.5184 24.8902 4.2658 24.991 4.0036 24.9887C3.7414 24.9864 3.49059 24.8812 3.30518 24.6958C3.11977 24.5104 3.0146 24.2596 3.01233 23.9974C3.01005 23.7352 3.11084 23.4826 3.293 23.294L5.293 21.294C5.4816 21.1118 5.7342 21.011 5.9964 21.0133C6.2586 21.0156 6.50941 21.1208 6.69482 21.3062C6.88023 21.4916 6.9854 21.7424 6.98767 22.0046C6.98995 22.2668 6.88916 22.5194 6.707 22.708L4.707 24.708ZM24.707 3.294C24.5195 3.10653 24.2652 3.00121 24 3.00121C23.7348 3.00121 23.4805 3.10653 23.293 3.294L21.293 5.294C21.1108 5.4826 21.01 5.7352 21.0123 5.9974C21.0146 6.2596 21.1198 6.51041 21.3052 6.69582C21.4906 6.88123 21.7414 6.9864 22.0036 6.98867C22.2658 6.99095 22.5184 6.89016 22.707 6.708L24.707 4.708C24.8945 4.52047 24.9998 4.26616 24.9998 4.001C24.9998 3.73584 24.8945 3.48153 24.707 3.294ZM21.293 22.708L23.293 24.708C23.4816 24.8902 23.7342 24.991 23.9964 24.9887C24.2586 24.9864 24.5094 24.8812 24.6948 24.6958C24.8802 24.5104 24.9854 24.2596 24.9877 23.9974C24.99 23.7352 24.8892 23.4826 24.707 23.294L22.707 21.294C22.5184 21.1118 22.2658 21.011 22.0036 21.0133C21.7414 21.0156 21.4906 21.1208 21.3052 21.3062C21.1198 21.4916 21.0146 21.7424 21.0123 22.0046C21.01 22.2668 21.1108 22.5194 21.293 22.708Z" fill="#01417D"/>
</svg>
