<svg width="33" height="35" viewBox="0 0 33 35" fill="none" xmlns="http://www.w3.org/2000/svg">
<path d="M20.2566 2.79076C20.2943 2.74432 20.3411 2.70588 20.3944 2.67776C20.4476 2.64964 20.5061 2.63244 20.5664 2.6272C20.6266 2.62196 20.6873 2.62879 20.7448 2.64729C20.8022 2.66578 20.8552 2.69554 20.9006 2.73476L22.5435 4.15578L17.3723 10.4996H20.7989L24.5556 5.89356L27.5024 8.44335C27.5895 8.51889 27.6431 8.62484 27.6518 8.7386C27.6605 8.85237 27.6235 8.96495 27.5488 9.05236L26.3179 10.4996H29.7856C30.2152 9.88271 30.4 9.13302 30.3054 8.39169C30.2108 7.65037 29.8432 6.96854 29.2719 6.47457L22.6719 0.764234C22.3535 0.489135 21.9813 0.280599 21.578 0.151362C21.1747 0.0221242 20.7488 -0.025102 20.3262 0.0125676C19.9037 0.0502372 19.4935 0.172012 19.1205 0.370454C18.7476 0.568896 18.4198 0.839841 18.1571 1.16674L10.6599 10.4996H14.0669L20.2566 2.79076ZM23.6351 22.7498C23.2803 22.7498 22.94 22.8881 22.6891 23.1342C22.4382 23.3804 22.2973 23.7142 22.2973 24.0623C22.2973 24.4104 22.4382 24.7443 22.6891 24.9904C22.94 25.2366 23.2803 25.3749 23.6351 25.3749H27.2027C27.5575 25.3749 27.8978 25.2366 28.1487 24.9904C28.3996 24.7443 28.5405 24.4104 28.5405 24.0623C28.5405 23.7142 28.3996 23.3804 28.1487 23.1342C27.8978 22.8881 27.5575 22.7498 27.2027 22.7498H23.6351ZM2.67568 10.9371C2.67568 10.589 2.81663 10.2552 3.06752 10.009C3.31841 9.7629 3.6587 9.62462 4.01351 9.62462H9.59319L11.7195 6.99958H4.01351C2.94906 6.99958 1.92821 7.41443 1.17553 8.15286C0.422851 8.8913 0 9.89283 0 10.9371V29.3124C0 30.8209 0.610785 32.2675 1.69799 33.3341C2.78519 34.4008 4.25976 35 5.7973 35H27.2027C28.7402 35 30.2148 34.4008 31.302 33.3341C32.3892 32.2675 33 30.8209 33 29.3124V17.9372C33 16.4288 32.3892 14.9821 31.302 13.9155C30.2148 12.8489 28.7402 12.2497 27.2027 12.2497H4.01351C3.6587 12.2497 3.31841 12.1114 3.06752 11.8652C2.81663 11.6191 2.67568 11.2852 2.67568 10.9371ZM2.67568 29.3124V14.6507C3.09486 14.7959 3.54438 14.8747 4.01351 14.8747H27.2027C28.9258 14.8747 30.3243 16.2467 30.3243 17.9372V29.3124C30.3243 30.1247 29.9954 30.9036 29.41 31.478C28.8246 32.0523 28.0306 32.375 27.2027 32.375H5.7973C4.96939 32.375 4.1754 32.0523 3.58998 31.478C3.00456 30.9036 2.67568 30.1247 2.67568 29.3124Z" fill="#01417D"/>
</svg>
